HIERARCHY
ROOT Hips
{
  OFFSET -102.467 93.6631 130.069
  CHANNELS 6 Xposition Yposition Zposition Zrotation Xrotation Yrotation
  JOINT LeftUpLeg
  {
    OFFSET 8.64259 1.95398 -2.38835
    CHANNELS 3 Zrotation Xrotation Yrotation
    JOINT LeftLeg
    {
      OFFSET 43.7702 0 0
      CHANNELS 3 Zrotation Xrotation Yrotation
      JOINT LeftFoot
      {
        OFFSET 40.6238 0 0
        CHANNELS 3 Zrotation Xrotation Yrotation
        JOINT LeftToeBase
        {
          OFFSET 12.7242 0 0
          CHANNELS 3 Zrotation Xrotation Yrotation
          End Site
          {
            OFFSET 0 0 0
          }
        }
      }
    }
  }
  JOINT RightUpLeg
  {
    OFFSET -8.2249 1.95398 -2.59336
    CHANNELS 3 Zrotation Xrotation Yrotation
    JOINT RightLeg
    {
      OFFSET 43.5653 0 0
      CHANNELS 3 Zrotation Xrotation Yrotation
      JOINT RightFoot
      {
        OFFSET 40.6238 0 0
        CHANNELS 3 Zrotation Xrotation Yrotation
        JOINT RightToeBase
        {
          OFFSET 12.7242 0 0
          CHANNELS 3 Zrotation Xrotation Yrotation
          End Site
          {
            OFFSET 0 0 0
          }
        }
      }
    }
  }
  JOINT Spine
  {
    OFFSET 0.165834 0.87714 6.61349
    CHANNELS 3 Zrotation Xrotation Yrotation
    JOINT Spine1
    {
      OFFSET 7.38963 1.71661e-005 0
      CHANNELS 3 Zrotation Xrotation Yrotation
      JOINT Spine2
      {
        OFFSET 11.9445 1.14441e-005 0
        CHANNELS 3 Zrotation Xrotation Yrotation
        JOINT Spine3
        {
          OFFSET 14.7254 4.19617e-005 0
          CHANNELS 3 Zrotation Xrotation Yrotation
          JOINT Spine4
          {
            OFFSET 10.9679 0 0
            CHANNELS 3 Zrotation Xrotation Yrotation
            JOINT RightShoulder
            {
              OFFSET 2.46616 -1.6653 3.69651
              CHANNELS 3 Zrotation Xrotation Yrotation
              JOINT RightArm
              {
                OFFSET 13.0012 0 0
                CHANNELS 3 Zrotation Xrotation Yrotation
                JOINT RightForeArm
                {
                  OFFSET 28.7848 1.52588e-005 0
                  CHANNELS 3 Zrotation Xrotation Yrotation
                  JOINT RightHand
                  {
                    OFFSET 26.5688 1.52588e-005 0
                    CHANNELS 3 Zrotation Xrotation Yrotation
                    End Site
                    {
                      OFFSET 0 0 0
                    }
                  }
                }
              }
            }
            JOINT LeftShoulder
            {
              OFFSET 2.38034 -1.29275 -3.7523
              CHANNELS 3 Zrotation Xrotation Yrotation
              JOINT LeftArm
              {
                OFFSET 16.3182 6.10351e-005 0
                CHANNELS 3 Zrotation Xrotation Yrotation
                JOINT LeftForeArm
                {
                  OFFSET 27.0901 0 0
                  CHANNELS 3 Zrotation Xrotation Yrotation
                  JOINT LeftHand
                  {
                    OFFSET 24.5451 1.52588e-005 0
                    CHANNELS 3 Zrotation Xrotation Yrotation
                    End Site
                    {
                      OFFSET 0 0 0
                    }
                  }
                }
              }
            }
            JOINT Neck
            {
              OFFSET 5.0226 -0.0266342 0
              CHANNELS 3 Zrotation Xrotation Yrotation
              JOINT Head
              {
                OFFSET 6.69363 2.86102e-005 0
                CHANNELS 3 Zrotation Xrotation Yrotation
                End Site
                {
                  OFFSET 0 0 0
                }
              }
            }
          }
        }
      }
    }
  }
}
MOTION
Frames:	18
Frame Time:	0.0416667
-283.805 94.5675 265.046 83.462 59.9709 96.1553 174.571 8.4639 84.7568 -12.4592 24.1354 7.85199 58.6133 2.92739 6.70929 35.1099 -0.412198 2.65592 173.72 8.48263 87.4097 -16.554 -0.245769 1.9573 56.0219 9.05352 0.286046 47.922 -4.62982 0.197058 -2.63826 5.81543 -89.9552 15.2815 -5.19377 0.881828 3.62051 -5.14994 1.11014 -18.9976 -5.21804 -0.724257 1.01507 -5.21804 -0.724267 103.551 -61.3251 -80.2858 24.86 -12.7419 -3.05827 -2.95881 -10.2639 -15.2222 -6.36013 -0.341217 1.16027 -76.6649 -50.4122 98.6562 -31.4661 9.31299 -14.1619 5.58453 48.4326 -12.8096 11.1672 0.495817 0.56655 -5.47676 -9.65576 -2.43335 -23.6645 -8.10803 -7.86483 
-283.972 94.5986 264.499 85.4445 59.1529 96.2479 175.167 8.28718 85.8245 -15.3648 23.7627 8.51132 60.391 4.12409 8.18432 34.0983 -0.479159 1.23141 173.565 6.21915 88.5953 -14.4607 -0.835159 2.53371 55.202 8.68182 0.306628 48.0818 -4.63596 0.295479 -2.52236 5.96692 -90.1273 14.9682 -5.05364 0.492197 3.30691 -5.02706 0.714679 -19.3053 -4.96728 -1.05327 0.707303 -4.9673 -1.05327 103.677 -61.3039 -80.1133 24.9707 -12.6833 -3.03096 -2.92455 -10.1718 -15.1073 -6.78623 -0.323188 0.374403 -76.8203 -50.4821 98.4197 -31.2299 11.1389 -14.0094 2.94354 45.0871 -10.7202 16.3639 0.819105 1.15192 -4.98854 -9.42501 -2.3442 -23.8727 -7.81847 -8.06943 
-283.941 94.5945 265.144 83.4429 59.7757 96.3394 174.639 8.6359 84.8397 -12.6895 24.3444 7.83525 58.7359 3.45915 8.00354 34.3583 -0.507914 1.21336 173.729 8.39171 87.64 -16.0742 -0.683554 2.06265 55.9354 8.33419 -0.821627 48.3893 -4.72302 0.270511 -2.60731 5.83246 -89.9771 15.2454 -5.14395 0.828195 3.58422 -5.10251 1.05435 -19.0321 -5.1544 -0.760298 0.980526 -5.15441 -0.760297 103.694 -61.2061 -80.0882 25.026 -12.4323 -2.95881 -3.04743 -10.2415 -15.1758 -6.52581 -0.276051 -0.266325 -76.8655 -50.7877 98.3466 -31.0197 11.0816 -14.1396 2.91631 45.7429 -10.6019 16.0206 0.698307 0.516609 -3.66658 -8.54102 -2.04197 -24.0382 -6.93534 -7.92743 
-284.064 94.606 265.199 83.8124 59.3639 96.4876 174.837 8.8235 85.2237 -13.386 24.155 7.90726 58.9932 3.57911 8.09683 34.4739 -0.499089 1.398 173.685 7.8114 88.1026 -14.9806 -1.50316 2.32914 55.5398 7.51819 -2.24497 48.8243 -4.83045 0.280327 -2.54374 5.86962 -90.04 15.1669 -5.05055 0.681603 3.50549 -5.01564 0.903772 -19.1075 -5.02128 -0.871766 0.905172 -5.02129 -0.871764 103.757 -60.9501 -79.9958 25.1028 -12.5625 -3.17957 -3.12134 -10.5988 -15.2751 -6.30383 -0.311243 0.617429 -76.9566 -50.8989 98.2076 -31.1512 10.3695 -14.3607 3.40159 47.5268 -10.6275 13.8071 0.37431 -1.14007 -2.0667 -6.65281 -1.32556 -24.2884 -5.05816 -7.98326 
-284.259 94.5921 265.296 84.2492 59.1402 96.5063 174.893 9.05638 85.5263 -14.0803 24.0217 8.01462 58.8602 3.17479 7.41465 35.3023 -0.448749 2.50438 173.319 7.09075 88.3287 -13.6103 -2.89248 2.96034 55.1334 6.43214 -4.38767 49.2154 -4.9925 0.109563 -2.50439 5.93264 -90.1146 15.0366 -5.01097 0.516967 3.37512 -4.98336 0.737548 -19.2359 -4.93408 -1.01674 0.776712 -4.93409 -1.01674 103.665 -60.4802 -80.1094 25.3273 -12.1971 -3.48501 -3.1153 -10.3203 -15.0484 -5.97245 -0.241908 -0.506503 -77.0719 -51.5078 98.0268 -30.6817 10.283 -14.6028 3.42282 47.5204 -10.6468 11.8025 0.246791 -1.65735 0.467109 -4.55663 -0.701399 -24.3573 -3.10494 -7.41709 
-284.419 94.7077 265.432 84.7048 58.6644 96.3613 175.052 8.68472 85.7361 -13.5649 23.9468 7.94486 58.7183 3.4764 8.14955 34.5304 -0.476968 1.62315 172.768 6.46089 88.4421 -12.2994 -4.28396 3.69874 54.7497 4.8142 -6.57252 49.0741 -4.86359 0.365646 -2.41563 6.00089 -90.1549 14.8961 -4.85664 0.403619 3.23408 -4.83416 0.617478 -19.3719 -4.7529 -1.07807 0.640759 -4.75289 -1.07807 103.811 -60.4418 -79.9076 25.1177 -12.589 -3.81434 -3.02413 -10.2652 -15.173 -6.27715 -0.28387 0.0976068 -77.4589 -51.7522 97.4471 -30.3751 10.5309 -14.8265 3.15958 46.6466 -10.5781 9.85894 0.259074 -1.11775 2.26206 -2.25616 -0.963992 -23.0335 -1.1059 -5.84686 
-284.532 94.6526 265.577 85.3844 58.3493 96.1397 175.318 8.95405 86.0499 -14.6054 23.6811 7.95025 59.0227 3.4528 7.95682 35.0542 -0.476312 2.06714 172.639 5.67489 88.8624 -11.0631 -5.41425 4.07662 54.2433 3.4422 -9.07974 49.7804 -4.93644 0.655208 -2.3522 6.08436 -90.2069 14.7251 -4.75815 0.274232 3.06283 -4.74144 0.483846 -19.5396 -4.62006 -1.17161 0.473035 -4.62008 -1.17162 103.537 -60.269 -80.2821 25.3415 -12.1635 -3.98581 -2.97222 -10.041 -14.9933 -6.41746 -0.288935 0.0617262 -77.5616 -51.7967 97.2938 -30.3072 10.6001 -15.1775 3.21602 46.779 -10.7005 7.42764 0.224267 -0.679867 3.69632 0.221423 -1.36636 -21.1844 1.04614 -3.9152 
-284.581 94.5504 265.711 85.5126 58.0338 96.4646 175.561 9.72343 86.4458 -16.2463 23.3399 8.02909 59.9058 3.89191 8.17454 34.6997 -0.50307 1.56143 172.864 4.84708 89.5375 -9.23217 -6.34028 4.20072 53.3628 2.36805 -11.6206 50.811 -5.1585 0.762395 -2.2694 6.14281 -90.2865 14.6034 -4.63436 0.0888683 2.9407 -4.62596 0.293186 -19.6572 -4.44638 -1.31087 0.35546 -4.44636 -1.31088 103.616 -60.0759 -80.1675 25.3327 -12.3019 -4.22928 -2.91604 -9.97689 -15.0257 -6.72597 -0.351061 0.969336 -77.7701 -52.1872 96.9837 -29.9858 10.5554 -15.4994 3.17391 45.7281 -10.7986 4.49656 0.198385 0.465801 5.36559 2.07225 -1.71244 -19.1613 2.63543 -2.02079 
-284.637 94.4582 265.824 85.371 57.5692 96.9211 175.554 10.1708 86.712 -17.0484 23.4141 8.24626 60.172 4.14105 8.74575 35.0022 -0.517203 1.70116 172.883 4.5136 90.0544 -8.12046 -7.27013 4.51658 53.2746 0.924436 -13.9532 50.5042 -5.01211 0.944123 -2.16567 6.17709 -90.3493 14.5304 -4.46035 -0.0664539 2.86708 -4.45897 0.130315 -19.7251 -4.23379 -1.40634 0.287512 -4.2338 -1.40634 103.847 -59.7201 -79.8386 25.6052 -12.0874 -4.57047 -2.96441 -10.353 -14.741 -6.61407 -0.338021 0.83495 -78.2039 -51.8972 96.3378 -30.2368 11.0356 -15.531 1.82155 41.8762 -9.62196 3.99645 0.192119 0.707109 6.35546 4.0939 -2.18335 -18.3129 4.46687 -0.0299359 
-284.636 94.3058 265.94 84.4292 57.0524 97.3602 175.302 10.5898 86.4059 -16.6575 23.7105 8.26174 59.4296 3.83012 9.37114 36.9717 -0.513793 3.17545 172.486 5.46587 89.8816 -8.60691 -8.70452 5.02344 53.8552 -0.895209 -16.3365 51.1847 -5.83608 -0.742299 -2.08001 6.16012 -90.4078 14.5609 -4.31947 -0.202562 2.89715 -4.3242 -0.0119 -19.6905 -4.05859 -1.49351 0.322171 -4.05857 -1.49352 104.098 -59.1198 -79.4711 25.896 -11.6754 -4.7648 -3.1139 -10.0912 -15.2208 -6.68805 -0.404499 1.92489 -78.759 -53.249 95.5352 -29.0026 10.6841 -15.6053 1.7985 41.6878 -9.64775 2.01266 0.106283 0.742737 7.98104 5.25421 -1.19504 -17.3607 5.23744 1.51903 
-284.403 94.2062 266.116 84.7263 56.5074 97.0655 175.391 10.5834 86.4426 -17.0854 25.141 8.29066 58.4558 3.78823 11.5527 39.1017 -0.628863 3.66952 172.377 5.28391 90.1382 -8.29945 -9.89264 5.32695 53.5592 -2.07773 -18.5978 54.5988 -7.10789 -1.5711 -1.95204 6.32183 -90.5109 14.2311 -4.1179 -0.455485 2.56668 -4.13398 -0.273502 -20.014 -3.79037 -1.67374 -0.00132121 -3.79036 -1.67373 104.383 -58.432 -79.0472 25.9996 -11.1237 -5.79088 -3.0547 -9.65142 -14.3329 -6.28164 -0.180816 -1.96923 -80.0013 -54.3477 93.7551 -27.9436 10.0907 -16.5391 1.73281 42.4145 -9.18446 -0.0954568 0.0153292 1.08464 10.3689 6.62742 0.0318258 -16.9801 6.23355 2.29927 
-283.907 94.1431 266.134 84.2571 56.1107 97.2671 174.857 11.1346 86.3702 -17.8881 22.0275 8.6502 60.3271 4.53815 9.94713 36.8432 -0.58675 2.53006 172.016 4.77481 90.0718 -6.74874 -11.2787 5.96028 52.8982 -2.7593 -20.3566 55.2433 -7.63154 -2.35346 -1.84895 6.42412 -90.6153 14.0213 -3.9651 -0.696357 2.35627 -3.9919 -0.520908 -20.2187 -3.57231 -1.85722 -0.206028 -3.57231 -1.85723 104.188 -58.1053 -79.3108 25.4071 -11.793 -5.92744 -3.26315 -9.30626 -16.0071 -5.94491 -0.297067 0.779084 -81.3019 -55.3652 91.9337 -26.8525 9.85223 -17.5946 1.46009 41.0717 -8.69974 -3.33859 -0.164465 4.05753 10.7779 7.05947 -0.460417 -15.6068 6.51988 5.05219 
-282.934 94.0713 265.97 85.043 55.7861 96.0996 174.475 10.3873 86.0837 -18.1045 20.2911 8.92922 61.193 4.95341 9.097 37.0142 -0.568028 2.81303 171.605 4.18935 89.7899 -7.18475 -11.6833 6.23229 53.4631 -3.48763 -20.7277 55.4886 -7.98128 -2.99343 -1.73931 6.54912 -90.6877 13.7672 -3.7833 -0.878082 2.10157 -3.81827 -0.710502 -20.4676 -3.34433 -1.9756 -0.454925 -3.34436 -1.9756 104.561 -57.3909 -78.7533 25.3838 -11.6964 -6.06784 -3.40426 -9.16532 -16.6688 -5.97442 -0.361312 2.03849 -82.761 -56.6681 89.9527 -25.4608 10.1564 -18.4785 0.784041 39.542 -7.77804 -4.1759 -0.247184 5.55772 9.79739 7.07037 -0.951767 -16.2027 6.40339 7.04906 
-281.436 93.7983 265.654 86.4016 54.8557 94.5225 174.137 9.9531 86.1522 -19.9536 19.2977 8.45777 61.3068 6.13478 10.5603 40.0428 -0.718853 3.53656 170.608 3.82869 89.304 -9.03637 -14.024 7.19704 54.4914 -4.64945 -21.7846 55.6207 -7.95559 -2.85181 -1.55656 6.69319 -90.7794 13.4745 -3.46525 -1.11596 1.80783 -3.511 -0.962201 -20.7524 -2.9696 -2.10647 -0.739757 -2.96961 -2.10647 104.55 -56.7147 -78.7423 25.2136 -11.2184 -5.81327 -2.75525 -8.34053 -15.0374 -7.9754 -0.218251 -2.2568 -84.0475 -58.1274 88.2833 -23.9507 10.2519 -18.5821 1.02103 37.8706 -7.87908 -3.59285 -0.159773 2.76212 8.11249 5.47748 -1.29443 -17.2283 4.65108 8.73554 
-279.759 92.8327 265.474 86.8522 53.9153 94.8928 171.192 15.5465 86.9673 -31.5925 12.6232 8.12076 60.5082 6.72545 9.69721 47.3062 -0.644593 6.59621 170.55 5.83423 90.334 -15.3626 -15.3498 7.62588 57.7755 -6.08118 -22.0492 53.6286 -7.94141 -4.23147 -1.19685 6.8723 -90.9355 13.1114 -2.82566 -1.52332 1.44281 -2.88997 -1.39742 -21.1021 -2.2373 -2.30221 -1.0895 -2.23727 -2.30222 104.889 -57.1255 -78.274 24.7095 -11.4232 -5.51874 -3.36777 -10.1488 -16.1916 -8.29298 -0.495624 2.0028 -84.681 -57.6382 87.3571 -23.8296 10.0497 -19.0168 2.19476 35.999 -8.81963 -3.12561 -0.0951209 -3.43257 8.59169 1.8439 -2.97171 -20.4299 1.16416 8.93985 
-277.613 92.0679 265.185 85.5768 52.2354 96.5321 170.609 25.728 87.8497 -47.4391 7.02825 6.9971 59.2371 5.67999 8.55907 49.1109 0.627943 12.2535 171.947 8.13439 92.4144 -21.1096 -13.6391 6.34462 61.3738 -6.40974 -19.6239 52.3373 -6.73614 -2.23147 -0.691447 6.90899 -91.0636 13.0366 -1.8836 -1.89618 1.36576 -1.96521 -1.81146 -21.1638 -1.22682 -2.37443 -1.15116 -1.22681 -2.37443 102.715 -58.4687 -81.3964 22.8744 -11.031 -4.59783 -2.5084 -10.0601 -14.1041 -9.00492 -0.540763 1.97237 -84.2119 -58.1874 88.0625 -22.6222 10.6637 -19.4025 3.49635 36.29 -11.1334 -1.50968 -0.0843899 -3.46587 7.0086 0.57857 -2.9331 -18.7997 0.21996 7.16736 
-274.958 91.9678 264.347 82.8837 49.2567 98.381 175.345 32.795 87.7886 -47.7416 8.96513 3.99315 59.6989 4.8368 6.68571 48.8909 -0.0838941 9.3121 173.471 9.41683 93.4747 -22.8363 -11.9464 4.8371 63.6652 -5.06026 -14.7048 51.6173 -5.59781 0.156553 -0.0260214 6.81219 -90.8957 13.2425 -0.483501 -1.732 1.57057 -0.559259 -1.70906 -20.9553 0.0593103 -1.79722 -0.94267 0.0592855 -1.79723 103.511 -60.6649 -80.3262 21.5252 -10.2537 -5.894 -1.75084 -10.8576 -10.7833 -8.51538 -0.392146 0.189731 -83.3003 -54.6634 89.017 -24.7778 11.8811 -17.8758 5.00051 36.0184 -13.597 -0.892381 -0.0658998 -2.4643 10.5112 -0.999008 -7.64997 -21.3583 -0.61086 9.19814 
-272.094 92.2288 263.126 82.2621 46.0615 98.7728 178.538 33.2839 87.8354 -31.3615 7.07301 2.11821 56.9206 1.23975 3.26531 42.6787 -0.0269915 8.46247 175.592 9.27425 94.7481 -25.0127 -5.1802 2.22898 66.9626 -2.89639 -4.52 49.3598 -4.15184 2.53243 0.435383 6.75566 -91.0208 13.3614 0.370523 -2.09062 1.68883 0.278149 -2.1049 -20.8353 0.981595 -1.88274 -0.822673 0.981588 -1.88275 101.278 -58.86 -83.4178 22.0808 -10.4619 -5.60608 -1.94033 -11.1328 -11.7855 -9.19843 -0.662437 3.37617 -83.671 -57.9113 88.7861 -23.3696 9.12262 -15.2614 2.37929 33.1351 -8.88611 -0.232633 -0.144105 -7.40431 9.47827 -1.37193 -3.18635 -20.2571 -1.41756 5.44713 
